<svg width="682" height="27" viewBox="0 0 682 27" fill="none" xmlns="http://www.w3.org/2000/svg">
<circle cx="13.5" cy="13.5" r="13.5" fill="#FF0000"/>
<circle cx="139.5" cy="13.5" r="13.5" fill="#6592E3"/>
<circle cx="449.5" cy="13.5" r="13.5" fill="#FCB600"/>
<path d="M48.846 5.3C50.26 5.3 51.45 5.776 52.416 6.728C53.382 7.68 53.865 8.849 53.865 10.235C53.865 11.621 53.382 12.79 52.416 13.742C51.45 14.694 50.26 15.17 48.846 15.17H46.263V20H43.365V5.3H48.846ZM48.846 12.461C49.462 12.461 49.973 12.251 50.379 11.831C50.785 11.397 50.988 10.865 50.988 10.235C50.988 9.591 50.785 9.059 50.379 8.639C49.973 8.219 49.462 8.009 48.846 8.009H46.263V12.461H48.846ZM60.3606 20.294C58.9046 20.294 57.6796 19.972 56.6856 19.328C55.6916 18.67 54.9916 17.781 54.5856 16.661L57.0636 15.212C57.6376 16.71 58.7646 17.459 60.4446 17.459C61.2566 17.459 61.8516 17.312 62.2296 17.018C62.6076 16.724 62.7966 16.353 62.7966 15.905C62.7966 15.387 62.5656 14.988 62.1036 14.708C61.6416 14.414 60.8156 14.099 59.6256 13.763C58.9676 13.567 58.4076 13.371 57.9456 13.175C57.4976 12.979 57.0426 12.72 56.5806 12.398C56.1326 12.062 55.7896 11.642 55.5516 11.138C55.3136 10.634 55.1946 10.046 55.1946 9.374C55.1946 8.044 55.6636 6.987 56.6016 6.203C57.5536 5.405 58.6946 5.006 60.0246 5.006C61.2146 5.006 62.2576 5.3 63.1536 5.888C64.0636 6.462 64.7706 7.267 65.2746 8.303L62.8386 9.71C62.2506 8.45 61.3126 7.82 60.0246 7.82C59.4226 7.82 58.9466 7.96 58.5966 8.24C58.2606 8.506 58.0926 8.856 58.0926 9.29C58.0926 9.752 58.2816 10.13 58.6596 10.424C59.0516 10.704 59.7936 11.012 60.8856 11.348C61.3336 11.488 61.6696 11.6 61.8936 11.684C62.1316 11.754 62.4466 11.873 62.8386 12.041C63.2446 12.195 63.5526 12.342 63.7626 12.482C63.9866 12.622 64.2386 12.811 64.5186 13.049C64.7986 13.287 65.0086 13.532 65.1486 13.784C65.3026 14.036 65.4286 14.344 65.5266 14.708C65.6386 15.058 65.6946 15.443 65.6946 15.863C65.6946 17.221 65.1976 18.299 64.2036 19.097C63.2236 19.895 61.9426 20.294 60.3606 20.294ZM67.4822 5.3H70.3802V20H67.4822V5.3ZM87.4863 5.3V20H84.6093V10.466L80.4723 17.291H80.1363L75.9993 10.487V20H73.1013V5.3H76.0833L80.3043 12.251L84.5043 5.3H87.4863Z" fill="#FF0000"/>
<path d="M176.337 20.294C174.125 20.294 172.298 19.559 170.856 18.089C169.414 16.619 168.693 14.806 168.693 12.65C168.693 10.48 169.414 8.667 170.856 7.211C172.298 5.741 174.125 5.006 176.337 5.006C177.667 5.006 178.892 5.321 180.012 5.951C181.146 6.567 182.028 7.407 182.658 8.471L180.159 9.92C179.795 9.262 179.277 8.751 178.605 8.387C177.933 8.009 177.177 7.82 176.337 7.82C174.909 7.82 173.754 8.268 172.872 9.164C172.004 10.06 171.57 11.222 171.57 12.65C171.57 14.064 172.004 15.219 172.872 16.115C173.754 17.011 174.909 17.459 176.337 17.459C177.177 17.459 177.933 17.277 178.605 16.913C179.291 16.535 179.809 16.024 180.159 15.38L182.658 16.829C182.028 17.893 181.153 18.74 180.033 19.37C178.913 19.986 177.681 20.294 176.337 20.294ZM196.664 18.089C195.18 19.559 193.374 20.294 191.246 20.294C189.118 20.294 187.312 19.559 185.828 18.089C184.358 16.605 183.623 14.792 183.623 12.65C183.623 10.508 184.358 8.702 185.828 7.232C187.312 5.748 189.118 5.006 191.246 5.006C193.374 5.006 195.18 5.748 196.664 7.232C198.148 8.702 198.89 10.508 198.89 12.65C198.89 14.792 198.148 16.605 196.664 18.089ZM187.865 16.115C188.775 17.011 189.902 17.459 191.246 17.459C192.59 17.459 193.717 17.011 194.627 16.115C195.537 15.205 195.992 14.05 195.992 12.65C195.992 11.25 195.537 10.095 194.627 9.185C193.717 8.275 192.59 7.82 191.246 7.82C189.902 7.82 188.775 8.275 187.865 9.185C186.955 10.095 186.5 11.25 186.5 12.65C186.5 14.05 186.955 15.205 187.865 16.115ZM215.312 5.3V20H212.435V10.466L208.298 17.291H207.962L203.825 10.487V20H200.927V5.3H203.909L208.13 12.251L212.33 5.3H215.312ZM232.436 5.3V20H229.559V10.466L225.422 17.291H225.086L220.949 10.487V20H218.051V5.3H221.033L225.254 12.251L229.454 5.3H232.436ZM244.625 20L243.743 17.354H237.884L237.002 20H233.873L239.018 5.3H242.609L247.775 20H244.625ZM238.808 14.645H242.84L240.824 8.639L238.808 14.645ZM257.707 5.3H260.605V20H258.4L252.1 11.012V20H249.202V5.3H251.407L257.707 14.267V5.3ZM269.17 5.3C271.186 5.3 272.866 6.007 274.21 7.421C275.568 8.835 276.247 10.578 276.247 12.65C276.247 14.722 275.568 16.465 274.21 17.879C272.866 19.293 271.186 20 269.17 20H263.332V5.3H269.17ZM269.17 17.228C270.444 17.228 271.48 16.808 272.278 15.968C273.076 15.114 273.475 14.008 273.475 12.65C273.475 11.292 273.076 10.193 272.278 9.353C271.48 8.499 270.444 8.072 269.17 8.072H266.23V17.228H269.17ZM295.88 19.16L293.57 20.483L292.226 19.034C291.092 19.874 289.776 20.294 288.278 20.294C286.766 20.294 285.527 19.902 284.561 19.118C283.609 18.32 283.133 17.256 283.133 15.926C283.133 15.058 283.343 14.253 283.763 13.511C284.183 12.769 284.792 12.167 285.59 11.705C285.114 10.949 284.876 10.13 284.876 9.248C284.876 8.002 285.31 6.987 286.178 6.203C287.046 5.405 288.145 5.006 289.475 5.006C290.525 5.006 291.463 5.279 292.289 5.825C293.129 6.357 293.752 7.134 294.158 8.156L291.68 9.584C291.274 8.408 290.553 7.82 289.517 7.82C289.013 7.82 288.593 7.967 288.257 8.261C287.935 8.555 287.774 8.926 287.774 9.374C287.774 9.766 287.865 10.123 288.047 10.445C288.243 10.767 288.551 11.152 288.971 11.6L292.121 15.044C292.429 14.386 292.667 13.574 292.835 12.608L295.271 13.994C295.005 15.128 294.578 16.157 293.99 17.081L295.88 19.16ZM288.467 17.627C289.195 17.627 289.846 17.452 290.42 17.102L287.249 13.658C287.221 13.63 287.207 13.609 287.207 13.595C286.437 14.071 286.052 14.75 286.052 15.632C286.052 16.234 286.255 16.717 286.661 17.081C287.081 17.445 287.683 17.627 288.467 17.627ZM309.904 20.294C307.692 20.294 305.865 19.559 304.423 18.089C302.981 16.619 302.26 14.806 302.26 12.65C302.26 10.48 302.981 8.667 304.423 7.211C305.865 5.741 307.692 5.006 309.904 5.006C311.234 5.006 312.459 5.321 313.579 5.951C314.713 6.567 315.595 7.407 316.225 8.471L313.726 9.92C313.362 9.262 312.844 8.751 312.172 8.387C311.5 8.009 310.744 7.82 309.904 7.82C308.476 7.82 307.321 8.268 306.439 9.164C305.571 10.06 305.137 11.222 305.137 12.65C305.137 14.064 305.571 15.219 306.439 16.115C307.321 17.011 308.476 17.459 309.904 17.459C310.744 17.459 311.5 17.277 312.172 16.913C312.858 16.535 313.376 16.024 313.726 15.38L316.225 16.829C315.595 17.893 314.72 18.74 313.6 19.37C312.48 19.986 311.248 20.294 309.904 20.294ZM330.231 18.089C328.747 19.559 326.941 20.294 324.813 20.294C322.685 20.294 320.879 19.559 319.395 18.089C317.925 16.605 317.19 14.792 317.19 12.65C317.19 10.508 317.925 8.702 319.395 7.232C320.879 5.748 322.685 5.006 324.813 5.006C326.941 5.006 328.747 5.748 330.231 7.232C331.715 8.702 332.457 10.508 332.457 12.65C332.457 14.792 331.715 16.605 330.231 18.089ZM321.432 16.115C322.342 17.011 323.469 17.459 324.813 17.459C326.157 17.459 327.284 17.011 328.194 16.115C329.104 15.205 329.559 14.05 329.559 12.65C329.559 11.25 329.104 10.095 328.194 9.185C327.284 8.275 326.157 7.82 324.813 7.82C323.469 7.82 322.342 8.275 321.432 9.185C320.522 10.095 320.067 11.25 320.067 12.65C320.067 14.05 320.522 15.205 321.432 16.115ZM342.999 5.3H345.897V20H343.692L337.392 11.012V20H334.494V5.3H336.699L342.999 14.267V5.3ZM358.347 5.3V8.072H354.378V20H351.48V8.072H347.532V5.3H358.347ZM368.029 20L365.068 14.897H362.863V20H359.965V5.3H365.845C367.203 5.3 368.358 5.776 369.31 6.728C370.262 7.68 370.738 8.828 370.738 10.172C370.738 11.082 370.479 11.929 369.961 12.713C369.443 13.483 368.757 14.064 367.903 14.456L371.158 20H368.029ZM362.863 8.009V12.356H365.845C366.391 12.356 366.86 12.146 367.252 11.726C367.644 11.292 367.84 10.774 367.84 10.172C367.84 9.57 367.644 9.059 367.252 8.639C366.86 8.219 366.391 8.009 365.845 8.009H362.863ZM385.069 18.089C383.585 19.559 381.779 20.294 379.651 20.294C377.523 20.294 375.717 19.559 374.233 18.089C372.763 16.605 372.028 14.792 372.028 12.65C372.028 10.508 372.763 8.702 374.233 7.232C375.717 5.748 377.523 5.006 379.651 5.006C381.779 5.006 383.585 5.748 385.069 7.232C386.553 8.702 387.295 10.508 387.295 12.65C387.295 14.792 386.553 16.605 385.069 18.089ZM376.27 16.115C377.18 17.011 378.307 17.459 379.651 17.459C380.995 17.459 382.122 17.011 383.032 16.115C383.942 15.205 384.397 14.05 384.397 12.65C384.397 11.25 383.942 10.095 383.032 9.185C382.122 8.275 380.995 7.82 379.651 7.82C378.307 7.82 377.18 8.275 376.27 9.185C375.36 10.095 374.905 11.25 374.905 12.65C374.905 14.05 375.36 15.205 376.27 16.115ZM392.23 17.228H397.837V20H389.332V5.3H392.23V17.228Z" fill="#6592E3"/>
<path d="M485.203 5.3C487.219 5.3 488.899 6.007 490.243 7.421C491.601 8.835 492.28 10.578 492.28 12.65C492.28 14.722 491.601 16.465 490.243 17.879C488.899 19.293 487.219 20 485.203 20H479.365V5.3H485.203ZM485.203 17.228C486.477 17.228 487.513 16.808 488.311 15.968C489.109 15.114 489.508 14.008 489.508 12.65C489.508 11.292 489.109 10.193 488.311 9.353C487.513 8.499 486.477 8.072 485.203 8.072H482.263V17.228H485.203ZM503.253 20L502.371 17.354H496.512L495.63 20H492.501L497.646 5.3H501.237L506.403 20H503.253ZM497.436 14.645H501.468L499.452 8.639L497.436 14.645ZM516.486 5.3V8.072H512.517V20H509.619V8.072H505.671V5.3H516.486ZM526.488 20L525.606 17.354H519.747L518.865 20H515.736L520.881 5.3H524.472L529.638 20H526.488ZM520.671 14.645H524.703L522.687 8.639L520.671 14.645ZM539.948 20L535.013 5.3H538.163L541.754 16.598L545.324 5.3H548.495L543.539 20H539.948ZM549.912 5.3H552.81V20H549.912V5.3ZM560.324 20.294C558.868 20.294 557.643 19.972 556.649 19.328C555.655 18.67 554.955 17.781 554.549 16.661L557.027 15.212C557.601 16.71 558.728 17.459 560.408 17.459C561.22 17.459 561.815 17.312 562.193 17.018C562.571 16.724 562.76 16.353 562.76 15.905C562.76 15.387 562.529 14.988 562.067 14.708C561.605 14.414 560.779 14.099 559.589 13.763C558.931 13.567 558.371 13.371 557.909 13.175C557.461 12.979 557.006 12.72 556.544 12.398C556.096 12.062 555.753 11.642 555.515 11.138C555.277 10.634 555.158 10.046 555.158 9.374C555.158 8.044 555.627 6.987 556.565 6.203C557.517 5.405 558.658 5.006 559.988 5.006C561.178 5.006 562.221 5.3 563.117 5.888C564.027 6.462 564.734 7.267 565.238 8.303L562.802 9.71C562.214 8.45 561.276 7.82 559.988 7.82C559.386 7.82 558.91 7.96 558.56 8.24C558.224 8.506 558.056 8.856 558.056 9.29C558.056 9.752 558.245 10.13 558.623 10.424C559.015 10.704 559.757 11.012 560.849 11.348C561.297 11.488 561.633 11.6 561.857 11.684C562.095 11.754 562.41 11.873 562.802 12.041C563.208 12.195 563.516 12.342 563.726 12.482C563.95 12.622 564.202 12.811 564.482 13.049C564.762 13.287 564.972 13.532 565.112 13.784C565.266 14.036 565.392 14.344 565.49 14.708C565.602 15.058 565.658 15.443 565.658 15.863C565.658 17.221 565.161 18.299 564.167 19.097C563.187 19.895 561.906 20.294 560.324 20.294ZM573.03 20.294C571.392 20.294 570.048 19.832 568.998 18.908C567.948 17.984 567.423 16.745 567.423 15.191V5.3H570.3V14.96C570.3 15.73 570.517 16.339 570.951 16.787C571.399 17.235 572.092 17.459 573.03 17.459C573.968 17.459 574.654 17.235 575.088 16.787C575.536 16.339 575.76 15.73 575.76 14.96V5.3H578.658V15.191C578.658 16.745 578.133 17.984 577.083 18.908C576.033 19.832 574.682 20.294 573.03 20.294ZM590.308 20L589.426 17.354H583.567L582.685 20H579.556L584.701 5.3H588.292L593.458 20H590.308ZM584.491 14.645H588.523L586.507 8.639L584.491 14.645ZM597.784 17.228H603.391V20H594.886V5.3H597.784V17.228ZM605.037 5.3H607.935V20H605.037V5.3ZM613.743 17.228H619.98V20H610.047V17.69L616.158 8.072H610.194V5.3H619.854V7.589L613.743 17.228ZM631.426 20L630.544 17.354H624.685L623.803 20H620.674L625.819 5.3H629.41L634.576 20H631.426ZM625.609 14.645H629.641L627.625 8.639L625.609 14.645ZM644.66 5.3V8.072H640.691V20H637.793V8.072H633.845V5.3H644.66ZM646.278 5.3H649.176V20H646.278V5.3ZM664.266 18.089C662.782 19.559 660.976 20.294 658.848 20.294C656.72 20.294 654.914 19.559 653.43 18.089C651.96 16.605 651.225 14.792 651.225 12.65C651.225 10.508 651.96 8.702 653.43 7.232C654.914 5.748 656.72 5.006 658.848 5.006C660.976 5.006 662.782 5.748 664.266 7.232C665.75 8.702 666.492 10.508 666.492 12.65C666.492 14.792 665.75 16.605 664.266 18.089ZM655.467 16.115C656.377 17.011 657.504 17.459 658.848 17.459C660.192 17.459 661.319 17.011 662.229 16.115C663.139 15.205 663.594 14.05 663.594 12.65C663.594 11.25 663.139 10.095 662.229 9.185C661.319 8.275 660.192 7.82 658.848 7.82C657.504 7.82 656.377 8.275 655.467 9.185C654.557 10.095 654.102 11.25 654.102 12.65C654.102 14.05 654.557 15.205 655.467 16.115ZM677.034 5.3H679.932V20H677.727L671.427 11.012V20H668.529V5.3H670.734L677.034 14.267V5.3Z" fill="#FCB600"/>
</svg>
